<?xml version="1.0" encoding="utf-8"?><svg xmlns="http://www.w3.org/2000/svg" xmlns:xlink="http://www.w3.org/1999/xlink"><symbol viewBox="0 0 27 32" id="arc" xmlns="http://www.w3.org/2000/svg"><path d="M22.453 7.573l2.987-2.987v2.453h1.067V2.772H22.24v1.067h2.453l-2.987 2.987c-2.72-2.56-6.293-4.107-10.293-4.107C7.04 2.719 2.88 4.639 0 7.892l.8.693.32-.32 9.547 9.6-3.573 3.573H4.427L.694 25.171h3.413v3.413l3.733-3.733v-2.667l3.573-3.573 9.547 9.547-.32.32.693.8a15.105 15.105 0 0 0 5.173-11.413c.053-4-1.493-7.627-4.053-10.293zm-15.68 16.8l-1.6 1.6v-1.92H3.306l1.6-1.6h1.92v1.92zM1.867 7.52c2.56-2.4 5.973-3.733 9.547-3.733 3.68 0 7.04 1.44 9.547 3.733l-9.547 9.547L1.867 7.52zm19.84.8c2.347 2.507 3.733 5.867 3.733 9.547 0 3.573-1.333 6.933-3.733 9.547l-9.547-9.547 9.547-9.547z"/></symbol><symbol viewBox="0 0 32 32" id="clock" xmlns="http://www.w3.org/2000/svg"><path d="M16 3.205C8.934 3.205 3.205 8.934 3.205 16S8.934 28.795 16 28.795 28.795 23.066 28.795 16 23.066 3.205 16 3.205zm0 24.524C9.533 27.729 4.271 22.468 4.271 16S9.532 4.271 16 4.271 27.729 9.532 27.729 16c0 6.467-5.261 11.729-11.729 11.729z"/><path d="M16 17.066H9.602v1.066h7.464V7.513H16z"/></symbol><symbol viewBox="0 0 32 32" id="close" xmlns="http://www.w3.org/2000/svg"><path d="M10.722 9.969l-.754.754 5.278 5.278-5.253 5.253.754.754L16 16.755l5.253 5.253.754-.754-5.253-5.253 5.278-5.278-.754-.754L16 15.247z"/></symbol><symbol viewBox="0 0 28 32" id="diamond" xmlns="http://www.w3.org/2000/svg"><path d="M27.467 10.667L21.174 3.2h-14.4L.481 10.667l-.48.533.427.533L13.975 28.8l13.973-17.6-.48-.533zm-1.387 0H15.36l5.333-6.347 5.387 6.347zm-12.16 0l-5.547-6.4H19.36l-5.44 6.4zm-6.773-6.24l5.387 6.24H1.867l5.28-6.24zm6.293 7.306V26.4L1.76 11.733h11.68zM14.507 26.4V11.733h11.627L14.507 26.4z"/></symbol><symbol viewBox="0 0 29 32" id="joy" xmlns="http://www.w3.org/2000/svg"><path d="M21.76 12.725c-2.003 0-4.095 1.81-6.549 2.067v-1.046c.014-2.569 1.939-5.217 5.156-5.217h.61c2.96 0 6.003-2.343 6.328-6.294h-1.05c-.314 3.296-2.831 5.245-5.278 5.245h-.61c-3.806 0-6.169 3.221-6.203 6.229h-.002v.04l-.001.026h.001v1.018c-2.454-.257-4.546-2.067-6.548-2.067C5.458 12.726 0 17.003 0 25.386c0 4.245 2.865 4.379 3.23 4.379h.038c1.779 0 3.422-.855 5.475-2.909s2.874-2.592 4.362-2.592h3.165c1.489 0 2.309.539 4.362 2.592s3.695 2.909 5.475 2.909h.038c.364 0 3.229-.134 3.229-4.379 0-8.383-5.457-12.66-7.613-12.66zm4.395 15.992l-.025-.001h-.025c-1.494 0-2.909-.778-4.733-2.601-2.015-2.015-3.107-2.899-5.104-2.899h-3.164c-1.997 0-3.089.884-5.104 2.899-1.824 1.823-3.239 2.601-4.733 2.601l.002-.003-.04.003c-.512 0-2.181-.24-2.181-3.33 0-8.01 5.217-11.611 6.565-11.611.792 0 1.731.422 2.726.869 1.269.57 2.707 1.216 4.356 1.229 1.631-.013 3.069-.66 4.339-1.229.995-.447 1.934-.869 2.726-.869 1.346 0 6.564 3.601 6.564 11.611 0 3.091-1.669 3.33-2.169 3.331z"/><path d="M8.396 16.921H7.347v2.098H5.249v1.049h2.098v2.098h1.049v-2.098h2.098v-1.049H8.396zm11.011 1.046a1.574 1.574 0 1 0 0 3.147 1.574 1.574 0 0 0 0-3.147zm0 2.098a.525.525 0 0 1 0-1.049.525.525 0 0 1 0 1.049zm4.196-1.049a1.574 1.574 0 1 0 0 3.147 1.574 1.574 0 0 0 0-3.147zm0 2.098z"/></symbol><symbol viewBox="0 0 32 32" id="like" xmlns="http://www.w3.org/2000/svg"><path d="M21.886 5.115a6.376 6.376 0 0 1 6.376 6.376 6.354 6.354 0 0 1-1.964 4.6L16.001 26.44 5.517 15.904a6.35 6.35 0 0 1-1.778-4.413 6.376 6.376 0 0 1 12.262-2.452 6.377 6.377 0 0 1 5.886-3.924zm0-1.066A7.424 7.424 0 0 0 16 6.933a7.42 7.42 0 0 0-5.886-2.884c-4.104 0-7.442 3.339-7.442 7.442 0 1.928.737 3.758 2.075 5.152L16 27.952l11.053-11.108a7.368 7.368 0 0 0 2.275-5.352c0-4.104-3.339-7.442-7.442-7.442z"/></symbol><symbol viewBox="0 0 32 32" id="look" xmlns="http://www.w3.org/2000/svg"><path d="M16 6.404c-5.847 0-10.404 3.66-15.994 9.593 4.816 5.073 8.857 9.6 15.994 9.6s12.382-5.73 15.994-9.492c-3.697-4.407-8.943-9.7-15.994-9.7zm0 18.126c-6.336 0-10.16-3.929-14.524-8.532C6.668 10.584 10.796 7.471 16 7.471c6.161 0 10.975 4.443 14.558 8.591-3.523 3.674-8.293 8.469-14.558 8.469z"/><path d="M16 9.603c-3.528 0-6.398 2.87-6.398 6.397s2.87 6.397 6.398 6.397 6.398-2.87 6.398-6.397S19.528 9.603 16 9.603zm0 11.728c-2.939 0-5.331-2.391-5.331-5.331s2.392-5.331 5.331-5.331S21.331 13.06 21.331 16A5.338 5.338 0 0 1 16 21.331z"/><path d="M16 12.268c-2.058 0-3.732 1.674-3.732 3.732s1.674 3.732 3.732 3.732c2.058 0 3.732-1.674 3.732-3.732S18.058 12.268 16 12.268zm0 6.398c-1.47 0-2.666-1.196-2.666-2.666S14.53 13.334 16 13.334 18.666 14.53 18.666 16A2.67 2.67 0 0 1 16 18.666z"/></symbol><symbol viewBox="0 0 32 32" id="menu" xmlns="http://www.w3.org/2000/svg"><path d="M3.205 6.937v4.265h25.59V6.937H3.205zm24.524 3.199H4.272V8.003h23.457v2.133zM3.205 18.133h25.59v-4.265H3.205v4.265zm1.066-3.199h23.457v2.133H4.271v-2.133zM3.205 25.063h25.59v-4.265H3.205v4.265zm1.066-3.199h23.457v2.133H4.271v-2.133z"/></symbol><symbol viewBox="0 0 26 32" id="mw" xmlns="http://www.w3.org/2000/svg"><path d="M-.007 28.236L13.909 14.32l.754.754L.747 28.99l-.754-.754zm9.98-17.783h4.267v1.067H9.973v-1.067zm11.734 0h4.267v1.067h-4.267v-1.067zM17.44 14.72h1.067v4.267H17.44V14.72zm0-11.733h1.067v4.267H17.44V2.987zm6.551 2.73l-3.017 3.017-.754-.754 3.017-3.017.754.754zm-.745 11.325l-3.017-3.017.754-.754L24 16.288l-.754.754zm-8.26-8.301l-3.017-3.017.754-.754 3.017 3.017-.754.754z"/></symbol><symbol viewBox="0 0 129 129" id="next" xmlns="http://www.w3.org/2000/svg"><path d="M40.4 121.3c-.8.8-1.8 1.2-2.9 1.2-1.1 0-2.1-.4-2.9-1.2-1.6-1.6-1.6-4.2 0-5.8l51-51-51-51c-1.6-1.6-1.6-4.2 0-5.8 1.6-1.6 4.2-1.6 5.8 0l54 53.9c1.6 1.6 1.6 4.2 0 5.8z"/></symbol><symbol viewBox="0 0 28 32" id="paint" xmlns="http://www.w3.org/2000/svg"><path d="M22.347 14.827l-10.4-10.453-.213.16v-.267c0-1.76-1.44-3.2-3.2-3.2s-3.2 1.44-3.2 3.2v6.667L.907 15.361a3.122 3.122 0 0 0 0 4.427l6.027 6.027c.587.64 1.44.907 2.24.907s1.6-.32 2.24-.907l7.627-7.68h6.56l-3.253-3.307zM6.4 4.267c0-1.173.96-2.133 2.133-2.133s2.133.96 2.133 2.133V5.6L6.399 9.867v-5.6zm12.213 12.8l-8 8c-.373.373-.907.587-1.493.587a2.058 2.058 0 0 1-1.44-.587L1.653 19.04c-.8-.8-.8-2.133 0-2.933l9.013-8.96v6.72h1.067V6.08l.16-.16L23.04 17.067h-4.427zm9.6 9.92c-.32-2.88-3.413-6.72-3.413-6.72s-3.147 3.893-3.413 6.773v.427c0 1.92 1.547 3.467 3.467 3.467s3.467-1.547 3.467-3.467c-.053-.16-.053-.32-.107-.48zm-3.413 2.88a2.39 2.39 0 0 1-2.4-2.4V27.2c.16-1.6 1.387-3.68 2.347-5.12.96 1.387 2.187 3.52 2.4 5.067v.32c.053 1.333-1.013 2.4-2.347 2.4z"/></symbol><symbol viewBox="0 0 32 32" id="phone" xmlns="http://www.w3.org/2000/svg"><path d="M23.086 1.606H8.913c-.797 0-1.444.647-1.444 1.444v25.901c0 .798.647 1.444 1.444 1.444h14.173c.797 0 1.444-.646 1.444-1.444V3.05c0-.797-.647-1.444-1.444-1.444zm.378 27.345a.377.377 0 0 1-.377.377H8.914a.377.377 0 0 1-.377-.377v-4.95h14.928v4.95zm0-6.017H8.536V5.892h14.928v17.042zm0-18.108H8.536V3.05c0-.208.169-.378.377-.378h14.173c.208 0 .377.17.377.378v1.776z"/><path d="M14.401 26.129H17.6v1.066h-3.199v-1.066z"/></symbol><symbol viewBox="0 0 27 32" id="photo" xmlns="http://www.w3.org/2000/svg"><path d="M0 3.2v25.6h26.667V3.2H0zm1.067 16.107l7.467-7.84 7.413 7.413 3.733-3.2 5.547 5.653H1.067v-2.027zM25.6 27.733H1.067V22.4H25.6v5.333zm0-7.52l-5.813-6.027-3.733 3.2-7.52-7.467-7.467 7.84V4.266H25.6v15.947z"/><path d="M19.733 11.733c1.493 0 2.667-1.173 2.667-2.667s-1.173-2.667-2.667-2.667c-1.493 0-2.667 1.173-2.667 2.667s1.173 2.667 2.667 2.667zm0-4.266c.907 0 1.6.693 1.6 1.6s-.693 1.6-1.6 1.6c-.907 0-1.6-.693-1.6-1.6s.693-1.6 1.6-1.6z"/></symbol><symbol viewBox="0 0 32 32" id="plane" xmlns="http://www.w3.org/2000/svg"><path d="M9.123 30.464l-1.33-6.268-6.318-1.397 1.291-2.475 5.785-.316c.297-.386.96-1.234 1.374-1.648l5.271-5.271L4.207 7.701l2.782-2.782 13.932 2.444 4.933-4.933c.585-.585 1.496-.894 2.634-.894.776 0 1.395.143 1.421.149l.3.07.089.295c.469 1.55.187 3.298-.67 4.155l-4.956 4.956 2.434 13.875-2.782 2.782-5.367-10.945-4.923 4.924a90.2 90.2 0 0 1-2.033 1.912l-.431 5.425-2.449 1.329zm-6.058-8.405l5.63 1.244 1.176 5.544.685-.372.418-5.268.155-.142c.016-.014 1.542-1.409 2.153-2.02l5.978-5.979 5.367 10.945 1.334-1.335L23.527 10.8l5.349-5.348c.464-.464.745-1.598.484-2.783a6.038 6.038 0 0 0-.87-.066c-.593 0-1.399.101-1.881.582L21.284 8.51 7.351 6.066 6.016 7.4l10.989 5.388-6.326 6.326c-.483.482-1.418 1.722-1.428 1.734l-.149.198-5.672.31-.366.702z"/></symbol><symbol viewBox="0 0 32 32" id="portfolio" xmlns="http://www.w3.org/2000/svg"><path d="M19.732 7.203V4.537h-7.464v2.666H3.205v20.259h25.59V7.203h-9.063zm-6.398-1.599h5.331v1.599h-5.331V5.604zM12.268 8.27h15.461v8.53h-7.997v-2.133h-7.464V16.8H4.271V8.27h7.997zm6.398 7.463v3.199h-5.331v-3.199h5.331zM4.271 26.396v-8.53h7.997v2.133h7.464v-2.133h7.997v8.53H4.272z"/></symbol><symbol viewBox="0 0 129 129" id="prev" xmlns="http://www.w3.org/2000/svg"><path d="M88.6 121.3c.8.8 1.8 1.2 2.9 1.2s2.1-.4 2.9-1.2c1.6-1.6 1.6-4.2 0-5.8l-51-51 51-51c1.6-1.6 1.6-4.2 0-5.8s-4.2-1.6-5.8 0l-54 53.9c-1.6 1.6-1.6 4.2 0 5.8l54 53.9z"/></symbol><symbol viewBox="0 0 32 32" id="star" xmlns="http://www.w3.org/2000/svg"><path d="M19.38 12.803L16 2.405l-3.381 10.398H1.606l8.925 6.397-3.427 10.395L16 23.147l8.895 6.448L21.469 19.2l8.925-6.397H19.38zm1.077 6.731l2.394 7.261-6.85-4.965-6.851 4.965 2.64-8.005-.637-.456-6.228-4.464h8.471l2.606-8.016 2.605 8.016h8.471l-6.864 4.92.245.744z"/></symbol></svg>