<?xml version="1.0" encoding="utf-8"?><svg xmlns="http://www.w3.org/2000/svg" xmlns:xlink="http://www.w3.org/1999/xlink"><symbol viewBox="0 0 32 32" id="clock" xmlns="http://www.w3.org/2000/svg"><path d="M16 3.205C8.934 3.205 3.205 8.934 3.205 16S8.934 28.795 16 28.795 28.795 23.066 28.795 16 23.066 3.205 16 3.205zm0 24.524C9.533 27.729 4.271 22.468 4.271 16S9.532 4.271 16 4.271 27.729 9.532 27.729 16c0 6.467-5.261 11.729-11.729 11.729z"/><path d="M16 17.066H9.602v1.066h7.464V7.513H16z"/></symbol><symbol viewBox="0 0 32 32" id="close" xmlns="http://www.w3.org/2000/svg"><path d="M10.722 9.969l-.754.754 5.278 5.278-5.253 5.253.754.754L16 16.755l5.253 5.253.754-.754-5.253-5.253 5.278-5.278-.754-.754L16 15.247z"/></symbol><symbol viewBox="0 0 32 32" id="like" xmlns="http://www.w3.org/2000/svg"><path d="M21.886 5.115a6.376 6.376 0 0 1 6.376 6.376 6.354 6.354 0 0 1-1.964 4.6L16.001 26.44 5.517 15.904a6.35 6.35 0 0 1-1.778-4.413 6.376 6.376 0 0 1 12.262-2.452 6.377 6.377 0 0 1 5.886-3.924zm0-1.066A7.424 7.424 0 0 0 16 6.933a7.42 7.42 0 0 0-5.886-2.884c-4.104 0-7.442 3.339-7.442 7.442 0 1.928.737 3.758 2.075 5.152L16 27.952l11.053-11.108a7.368 7.368 0 0 0 2.275-5.352c0-4.104-3.339-7.442-7.442-7.442z"/></symbol><symbol viewBox="0 0 129 129" id="next" xmlns="http://www.w3.org/2000/svg"><path d="M40.4 121.3c-.8.8-1.8 1.2-2.9 1.2-1.1 0-2.1-.4-2.9-1.2-1.6-1.6-1.6-4.2 0-5.8l51-51-51-51c-1.6-1.6-1.6-4.2 0-5.8 1.6-1.6 4.2-1.6 5.8 0l54 53.9c1.6 1.6 1.6 4.2 0 5.8z"/></symbol><symbol viewBox="0 0 27 32" id="photo" xmlns="http://www.w3.org/2000/svg"><path d="M0 3.2v25.6h26.667V3.2H0zm1.067 16.107l7.467-7.84 7.413 7.413 3.733-3.2 5.547 5.653H1.067v-2.027zM25.6 27.733H1.067V22.4H25.6v5.333zm0-7.52l-5.813-6.027-3.733 3.2-7.52-7.467-7.467 7.84V4.266H25.6v15.947z"/><path d="M19.733 11.733c1.493 0 2.667-1.173 2.667-2.667s-1.173-2.667-2.667-2.667c-1.493 0-2.667 1.173-2.667 2.667s1.173 2.667 2.667 2.667zm0-4.266c.907 0 1.6.693 1.6 1.6s-.693 1.6-1.6 1.6c-.907 0-1.6-.693-1.6-1.6s.693-1.6 1.6-1.6z"/></symbol><symbol viewBox="0 0 32 32" id="portfolio" xmlns="http://www.w3.org/2000/svg"><path d="M19.732 7.203V4.537h-7.464v2.666H3.205v20.259h25.59V7.203h-9.063zm-6.398-1.599h5.331v1.599h-5.331V5.604zM12.268 8.27h15.461v8.53h-7.997v-2.133h-7.464V16.8H4.271V8.27h7.997zm6.398 7.463v3.199h-5.331v-3.199h5.331zM4.271 26.396v-8.53h7.997v2.133h7.464v-2.133h7.997v8.53H4.272z"/></symbol><symbol viewBox="0 0 129 129" id="prev" xmlns="http://www.w3.org/2000/svg"><path d="M88.6 121.3c.8.8 1.8 1.2 2.9 1.2s2.1-.4 2.9-1.2c1.6-1.6 1.6-4.2 0-5.8l-51-51 51-51c1.6-1.6 1.6-4.2 0-5.8s-4.2-1.6-5.8 0l-54 53.9c-1.6 1.6-1.6 4.2 0 5.8l54 53.9z"/></symbol><symbol viewBox="0 0 32 32" id="star" xmlns="http://www.w3.org/2000/svg"><path d="M19.38 12.803L16 2.405l-3.381 10.398H1.606l8.925 6.397-3.427 10.395L16 23.147l8.895 6.448L21.469 19.2l8.925-6.397H19.38zm1.077 6.731l2.394 7.261-6.85-4.965-6.851 4.965 2.64-8.005-.637-.456-6.228-4.464h8.471l2.606-8.016 2.605 8.016h8.471l-6.864 4.92.245.744z"/></symbol></svg>